<svg viewBox="0 0 48 48" width="96px" height="96px"><path d="M42,8c0-1.105-0.895-2-2-2h-3.172c-0.53,0-1.039,0.211-1.414,0.586L35,7l-3.934-0.793 c-0.131-0.027-0.264-0.039-0.395-0.039c-0.512,0-1.01,0.197-1.387,0.559L29,7h-2l-0.414-0.414C26.211,6.211,25.702,6,25.172,6 h-5.357c-0.542,0-1.061,0.22-1.438,0.61L18,7h-2l-0.389-0.398C15.235,6.217,14.719,6,14.181,6H8C6.895,6,6,6.895,6,8v10.152 c0,0.515,0.199,1.011,0.555,1.383L7,20v3l-0.414,0.414C6.211,23.789,6,24.298,6,24.828v3.369c0,0.555,0.23,1.084,0.636,1.463L7,30 v3l-0.452,0.478C6.196,33.849,6,34.341,6,34.853V40c0,1.105,0.895,2,2,2h11.067l0.339,0.364C19.785,42.77,20.315,43,20.87,43h4.302 c0.53,0,1.039-0.211,1.414-0.586L27,42h4.176c0.534,0,1.046-0.214,1.422-0.594L33,41h1l0.389,0.398 C34.765,41.783,35.281,42,35.819,42h1.352c0.53,0,1.039-0.211,1.414-0.586L39,41l1.835,0.957c0.094,0.031,0.189,0.046,0.281,0.046 c0.47,0,0.884-0.381,0.884-0.886V27.011L41,26v-4l-1-1l2-3V8z M28.524,13.494l3.04-1.407c0.313-0.145,0.67-0.106,0.952,0.104 l2.031,1.514c0.343,0.255,0.514,0.717,0.433,1.168l-0.575,3.212c-0.145,0.809-0.987,1.181-1.587,0.702l-4.398-3.513 c-0.288-0.206-0.446-0.551-0.425-0.922C28.018,13.981,28.215,13.66,28.524,13.494z M18.482,34.444L15.579,35.9 c-0.134,0.067-0.277,0.1-0.419,0.1c-0.198,0-0.395-0.064-0.561-0.189l-3.224-2.425c-0.338-0.254-0.465-0.706-0.308-1.099 l1.475-3.697c0.117-0.294,0.371-0.507,0.681-0.571c0.31-0.064,0.627,0.032,0.85,0.256l4.654,4.666 c0.212,0.213,0.31,0.517,0.262,0.814C18.94,34.052,18.751,34.31,18.482,34.444z M36.997,28.997l-1.746,5.996 c-0.118,0.408-0.503,0.693-0.937,0.693h-3.312c-0.277,0-0.542-0.116-0.726-0.319L10.248,14.015 c-0.204-0.224-0.288-0.52-0.231-0.815c0.056-0.294,0.245-0.54,0.518-0.676l1.138-0.565c0.3-0.149,0.665-0.133,0.952,0.04 l23.949,15.921C36.942,28.146,37.116,28.588,36.997,28.997z"/></svg>